<?xml version="1.0" encoding="UTF-8" standalone="no"?>
<!-- Uploaded to: SVG Repo, www.svgrepo.com, Generator: SVG Repo Mixer Tools -->

<svg
   fill="#000000"
   version="1.1"
   id="Capa_1"
   width="1156.8256"
   height="1156.8256"
   viewBox="0 0 503.33046 503.33046"
   xml:space="preserve"
   xmlns="http://www.w3.org/2000/svg"
   xmlns:svg="http://www.w3.org/2000/svg"><defs
   id="defs3" />

<g
   id="layer1"
   transform="translate(84.263763,68.039856)"><circle
     style="fill:#5bc236;fill-opacity:1;stroke:#404dc0;stroke-width:0.453852;stroke-linecap:square;stroke-miterlimit:11.2;paint-order:stroke fill markers"
     id="path3"
     cx="167.40146"
     cy="183.62537"
     r="251.43829" /><g
     id="g3"
     style="fill:#ffffff">
	<g
   id="g2"
   style="fill:#ffffff">
		<g
   id="g1"
   style="fill:#ffffff">
			<path
   d="M 340.273,275.083 286.518,221.322 C 275.811,210.658 258.08,210.982 247,222.066 l -27.082,27.076 c -1.711,-0.943 -3.482,-1.928 -5.344,-2.973 -17.102,-9.476 -40.509,-22.464 -65.14,-47.113 -24.704,-24.701 -37.704,-48.144 -47.209,-65.257 -1.003,-1.813 -1.964,-3.561 -2.913,-5.221 l 18.176,-18.149 8.936,-8.947 c 11.097,-11.1 11.403,-28.826 0.721,-39.521 L 73.39,8.194 C 62.708,-2.486 44.969,-2.162 33.872,8.938 l -15.15,15.237 0.414,0.411 C 14.056,31.068 9.811,38.544 6.652,46.606 3.74,54.28 1.927,61.603 1.098,68.941 -6,127.785 20.89,181.564 93.866,254.541 c 100.875,100.868 182.167,93.248 185.674,92.876 7.638,-0.913 14.958,-2.738 22.397,-5.627 7.992,-3.122 15.463,-7.361 21.941,-12.43 l 0.331,0.294 15.348,-15.029 c 11.074,-11.098 11.393,-28.83 0.716,-39.542 z"
   id="path1"
   style="fill:#ffffff" />
		</g>
	</g>
</g></g></svg>
