<?xml version="1.0" encoding="UTF-8" standalone="no"?>
<!-- Uploaded to: SVG Repo, www.svgrepo.com, Generator: SVG Repo Mixer Tools -->

<svg
   fill="#000000"
   version="1.1"
   id="Capa_1"
   width="1156.8256"
   height="1156.8256"
   viewBox="0 0 503.33046 503.33046"
   xml:space="preserve"
   xmlns="http://www.w3.org/2000/svg"
   xmlns:svg="http://www.w3.org/2000/svg"><defs
   id="defs3" />

<g
   id="layer1"
   transform="translate(84.263763,68.039856)"><circle
     style="fill:#ff3b30;fill-opacity:1;stroke:#404dc0;stroke-width:0.453852;stroke-linecap:square;stroke-miterlimit:11.2;paint-order:stroke fill markers"
     id="path3"
     cx="167.40146"
     cy="183.62537"
     r="251.43829" /><g
     id="g3"
     style="fill:#ffffff"
     transform="rotate(-44.723025,200.82502,195.53815)">
	<g
   id="g2"
   style="fill:#ffffff">
		<g
   id="g1"
   style="fill:#ffffff">
			<path
   d="M 7.8028945,72.993871 61.557895,126.75487 c 10.707,10.664 28.438,10.34 39.517995,-0.744 l 27.082,-27.075999 c 1.711,0.943 3.482,1.927999 5.344,2.972999 17.102,9.476 40.509,22.464 65.14,47.113 24.704,24.701 37.704,48.144 47.209,65.257 1.003,1.813 1.964,3.561 2.913,5.221 l -18.176,18.149 -8.936,8.947 c -11.097,11.1 -11.403,28.826 -0.721,39.521 l 53.755,53.767 c 10.682,10.68 28.421,10.356 39.518,-0.744 l 15.15,-15.237 -0.414,-0.411 c 5.08,-6.482 9.325,-13.958 12.484,-22.02 2.912,-7.674 4.725,-14.997 5.554,-22.335 7.098,-58.844 -19.792,-112.623 -92.768,-185.599999 C 153.33489,-7.3321295 72.042895,0.28787052 68.535895,0.65987052 c -7.638,0.91299998 -14.958,2.73799998 -22.397,5.62699998 -7.992,3.122 -15.463,7.3610005 -21.941,12.4300005 l -0.331,-0.294 -15.3480005,15.029 c -11.074,11.098 -11.393,28.83 -0.716,39.542 z"
   id="path1"
   style="fill:#ffffff" />
		</g>
	</g>
</g></g></svg>
