<svg xmlns="http://www.w3.org/2000/svg" xml:space="preserve" viewBox="0 0 100 100">
  <linearGradient id="a" x1="-185.017" x2="-185.017" y1="626.266" y2="624.767" gradientTransform="matrix(60 0 0 -60 11151 37581)" gradientUnits="userSpaceOnUse">
    <stop offset="0" stop-color="#D3D7DD"/>
    <stop offset="1" stop-color="#888C90"/>
  </linearGradient>
  <path fill="url(#a)" d="M63.6 5c9 0 13.5 0 18.4 1.5 5.3 1.9 9.5 6.1 11.4 11.4C95 22.8 95 27.4 95 36.4v27.2c0 9 0 13.5-1.5 18.4-1.9 5.3-6.1 9.5-11.4 11.4-5 1.6-9.5 1.6-18.5 1.6H36.4c-9 0-13.5 0-18.4-1.5-5.4-2-9.5-6.1-11.5-11.5C5 77.2 5 72.7 5 63.6V36.4c0-9 0-13.5 1.5-18.4 2-5.3 6.1-9.5 11.5-11.4C22.8 5 27.3 5 36.4 5h27.2z"/>
  <circle cx="50" cy="50" r="39" fill="#2e2e30"/>
  <path d="m52.62575303 29.24151468.99026807.1391731 1.08287233-2.67532942c.3233094-.86340664.5074457-.73654521.49513403.06958655l-.09260426 2.81450253c.29708042.04175193.67927034.19644797.97635076.2381999l1.36603544-2.53455068c.4084189-.75046253.60647251-.7226279.48121672.16861336l-.48871149 2.75883328c.28316311.14077874.66535303.29547478.96243345.33722671l1.63528124-2.29474514c.50744571-.73654521.69158202-.60968378.46729942.26764017l-.78579191 2.71708135c.2831631.14077874.66535303.29547478.93459883.53528033L62.4695532 29.615143c.5925552-.6236011.77669151-.49673967.46729942.26764017l-1.08287234 2.67532942c.2692458.23980554.55240892.38058428.82165472.62038983l2.08866334-1.92807817c.69158201-.6096838.87571832-.48282236.4533821.36666697l-1.35211813 2.43552387c.2692458.23980555.5384916.4796111.7087106.70549933l2.34399184-1.58924582c.6776647-.51065698.861801-.38379556.3543553.35274966l-1.76214268 2.47888144c.2692458.23980555.4394648.46569378.69479329.80452613l2.50029352-1.26433078c.7627742-.39771286.9469105-.27085143.34043798.45177647l-1.90452704 2.0549396c.170219.22588823.42554749.56472058.58184917.88963562l2.67051251-1.03844254c.8478837-.28476875.91907589-.07279782.24141118.43785916l-2.17377284 1.81513405.46890505.97474512 2.7277874-.72744481c.83396638-.18574194.90515856.02622898.24141117.43785916l-2.34399183 1.58924582c.15630168.32491504.21357656.63591277.36987824.9608278l2.78506226-.41644707c.82004908-.08671514.99026807.1391731.12846707.52296865l-2.50029352 1.26433078c.05727488.31099773.21357656.63591277.25693413 1.0459373l2.72939302-.02033985c.90515857.02622899.87732395.2242826.12846706.52296866l-2.5575684.95333304c.05727488.31099774.10063245.72102227.15790733 1.03202l2.7866679.29065788c.89124126.1252558.86340664.3233094.02944026.50905134l-2.71387008.62841801c.05727487.31099773.00160563.70710496-.0401463 1.00418538l2.63197186.6728478c.87732395.22428259.84948933.4223362-.06958655.49513403l-2.77114496.31742027-.15309041 1.08929488 2.60413724.8709014c.86340664.32330941.83557202.52136302-.06958655.49513404l-2.72939303.02033985c-.05566924.39610723-.19644798.67927034-.25211722 1.07537757l2.44944119 1.25309132c.75046252.4084189.7226279.60647252-.16861336.48121673l-2.67372378-.37576737c-.14077874.2831631-.19644798.67927033-.33722672.96243344l2.30866245 1.53625444c.73654522.5074457.60968379.69158201-.16861336.48121672l-2.63197185-.67284779c-.14077874.28316311-.29547479.66535303-.43625352.94851614l2.0688569 1.80550023c.6236011.5925552.59576648.79060882-.26764016.46729942l-2.49119312-.9560109c-.23980554.2692458-.39450159.65143571-.63430713.92068151l1.84296867 1.97571923c.6236011.5925552.48282236.87571832-.36666697.4533821l-2.49279876-1.66311586-.71941663.8077374 1.61708044 2.14593823c.51065698.6776647.38379555.861801-.35274966.3543553l-2.20963564-1.52233713c-.23980555.2692458-.4796111.5384916-.80452613.69479328l1.3911922 2.31615722c.39771287.7627742.27085144.9469105-.45177647.34043799l-2.0688569-1.80550024c-.33883235.2553285-.56472059.42554749-.88963563.58184917l1.06627717 2.4724589c.38379555.861801.17182463.9329932-.43785916.24141118l-1.84296867-1.97571923-.97474513.46890505.74136213 2.62876058c.28476874.8478837.07279782.91907589-.43785916.24141118l-1.50413632-2.23104772c-.32491504.15630169-.64983009.31260337-1.07377193.45498774l.43036439 2.68603546c.18574194.83396639-.02622898.90515858-.52296866.12846707l-1.27824808-2.40126672c-.31099773.05727488-.73493958.19965925-1.04593731.25693413l.13328397 2.64428353c.07279782.91907588-.2242826.87732395-.52296865.12846706l-.99508498-2.26048797c-.31099773.05727487-.72102227.10063244-1.03202.15790732l-.17771376 2.7015584c-.02622898.90515858-.3233094.86340665-.50905134.02944026l-.74136213-2.62876058c-.31099773.05727487-.70710496.00160563-1.1171295.0449632l-.57382098 2.64588917c-.1252558.89124126-.42233621.84948933-.50905134.02944025l-.21839347-2.75722764c-.39610723-.05566924-.69318765-.09742118-1.10321219-.0540636l-.8709014 2.60413723c-.32330941.86340664-.52136302.83557202-.49513404-.06958655l-.02033985-2.72939303c-.39610723-.05566924-.69318765-.09742117-1.07537757-.25211722l-1.15406452 2.4633585c-.3093921.76437983-.60647251.7226279-.48121672-.16861336l.27674056-2.6876411c-.38218991-.15469604-.67927033-.19644797-.96243345-.3372267l-1.53625443 2.30866244c-.4084189.75046253-.70549932.7087106-.48121672-.16861335l.57382098-2.64588917c-.2831631-.14077874-.66535303-.29547478-.94851614-.43625352l-1.72039073 2.18180102c-.50744571.73654522-.79060882.59576648-.46729942-.26764016l.8709014-2.60413724c-.2831631-.14077873-.5524089-.38058428-.93459882-.53528033L36.15677983 69.541675c-.5925552.6236011-.7766915.49673967-.46729941-.26764016l1.25309132-2.44944119c-.2692458-.23980554-.5384916-.47961109-.82165471-.62038982l-2.15985553 1.71610724c-.6776647.51065698-.861801.38379556-.3543553-.35274966l1.53625443-2.30866245c-.2692458-.23980554-.5384916-.47961109-.69479328-.80452613l-2.2883226 1.1931386c-.7766915.49673966-.9469105.27085143-.3543553-.35274967l1.72039075-2.18180102c-.2692458-.23980555-.42554749-.56472059-.59576648-.79060882l-2.48637621 1.16530397c-.7627742.39771286-.9329932.17182463-.34043799-.45177647l1.98963654-1.94199548c-.15630168-.32491504-.32652068-.55080327-.48282236-.87571831l-2.6426779.84038893c-.84788369.28476874-.91907587.07279782-.24141117-.43785916l2.25888234-1.70218994c-.15630169-.32491504-.31260337-.64983008-.36987825-.9608278l-2.69995277.5293912c-.83396638.18574193-.90515857-.026229-.12846706-.52296866l2.41518402-1.3772749c-.15630168-.32491504-.21357656-.63591277-.27085143-.9469105l-2.95528126.19055885c-.91907589.07279782-.99026807-.1391731-.12846707-.52296866l2.5714857-1.05235985c-.05727487-.31099773-.10063243-.72102227-.15790731-1.03202l-2.81450252-.09260426c-.90515858-.02622899-.87732395-.2242826-.02944026-.50905135l2.6426779-.84038893c-.05727488-.31099773-.00160564-.70710495-.05888052-1.01810269l-2.75883328-.48871148c-.89124126-.1252558-.84948933-.42233622-.02944026-.50905135l2.79897958-.51547389c.04175193-.29708042-.00160564-.70710496.0401463-1.00418538l-2.71708136-.7857919c-.87732395-.2242826-.83557202-.52136303.06958655-.49513404l2.84233714-.10544935.1391731-.99026807-2.57630261-1.06895502c-.76437983-.3093921-.7226279-.60647252.16861336-.48121673l2.80058521.19163107c.04175193-.29708042.19644798-.67927034.33722671-.96243345l-2.43552387-1.35211813c-.75046253-.4084189-.7226279-.60647251.16861335-.48121672l2.75883329.48871149c.14077873-.28316311.29547478-.66535303.43625352-.94851614l-2.29474514-1.63528124c-.73654522-.50744571-.60968379-.69158202.26764016-.46729942l2.70316404.88481872c.14077874-.28316311.38058428-.55240891.52136302-.83557202l-2.0549396-1.90452704c-.6236011-.5925552-.49673966-.77669151.26764017-.46729942l2.5623853 1.16798183c.23980555-.2692458.38058429-.55240891.62038983-.82165471l-1.81513405-2.17377284c-.60968379-.69158202-.38379556-.86180101.35274966-.3543553l2.42160657 1.45114494c.23980554-.2692458.46569377-.4394648.70549932-.7087106l-1.57532851-2.44301864c-.49673967-.77669151-.28476875-.8478837.35274966-.3543553l2.28082783 1.73430805c.23980555-.2692458.56472059-.42554748.80452613-.69479328l-1.22257885-2.79737394c-.39771286-.7627742-.17182463-.9329932.45177647-.340438l2.04102229 2.00355386c.22588823-.170219.55080327-.32652068.87571831-.48282236l-.93941573-2.6565952c-.28476875-.8478837-.07279783-.91907589.43785915-.24141119l1.80121675 2.27279965c.32491504-.15630168.64983008-.31260336.87571831-.48282236l-.6145007-2.81289688c-.18574193-.83396639.02622899-.90515858.53688597-.22749387l1.4763017 2.42910133c.32491504-.15630168.63591277-.21357656.9469105-.27085144l-.30350296-2.87017176c-.07279782-.91907588.1391731-.99026807.52296865-.12846706l1.15138666 2.58540301.9329932-.17182463.09260426-2.81450252c.02622898-.90515857.2242826-.87732395.50905134-.02944026l.82647162 2.7417047c.31099773-.05727487.72102227-.10063244 1.0181027-.0588805l.40360198-2.8717774c.1252558-.89124127.3233094-.86340665.50905135-.02944027l.6145007 2.8128969c.29708042.04175192.70710495-.00160564 1.00418537.04014629l.6867651-2.73099867c.2242826-.87732395.42233622-.84948933.49513404.06958655l.33133759 2.67211815zm-5.01933204 37.86999216c9.40754665 1.32214446 18.10424366-5.2312868 19.42638812-14.63883345s-5.2312868-18.10424366-14.63883345-19.42638812-18.18935315 5.11834268-19.51149761 14.52588933 5.31639629 18.21718778 14.72394294 19.53933224z"/>
  <path fill="#7f7f7f" d="m52.62575303 29.24151468.99026807.1391731 1.08287233-2.67532942c.3233094-.86340664.5074457-.73654521.49513403.06958655l-.09260426 2.81450253c.29708042.04175193.67927034.19644797.97635076.2381999l1.36603544-2.53455068c.4084189-.75046253.60647251-.7226279.48121672.16861336l-.48871149 2.75883328c.28316311.14077874.66535303.29547478.96243345.33722671l1.63528124-2.29474514c.50744571-.73654521.69158202-.60968378.46729942.26764017l-.78579191 2.71708135c.2831631.14077874.66535303.29547478.93459883.53528033L62.4695532 29.615143c.5925552-.6236011.77669151-.49673967.46729942.26764017l-1.08287234 2.67532942c.2692458.23980554.55240892.38058428.82165472.62038983l2.08866334-1.92807817c.69158201-.6096838.87571832-.48282236.4533821.36666697l-1.35211813 2.43552387c.2692458.23980555.5384916.4796111.7087106.70549933l2.34399184-1.58924582c.6776647-.51065698.861801-.38379556.3543553.35274966l-1.76214268 2.47888144c.2692458.23980555.4394648.46569378.69479329.80452613l2.50029352-1.26433078c.7627742-.39771286.9469105-.27085143.34043798.45177647l-1.90452704 2.0549396c.170219.22588823.42554749.56472058.58184917.88963562l2.67051251-1.03844254c.8478837-.28476875.91907589-.07279782.24141118.43785916l-2.17377284 1.81513405.46890505.97474512 2.7277874-.72744481c.83396638-.18574194.90515856.02622898.24141117.43785916l-2.34399183 1.58924582c.15630168.32491504.21357656.63591277.36987824.9608278l2.78506226-.41644707c.82004908-.08671514.99026807.1391731.12846707.52296865l-2.50029352 1.26433078c.05727488.31099773.21357656.63591277.25693413 1.0459373l2.72939302-.02033985c.90515857.02622899.87732395.2242826.12846706.52296866l-2.5575684.95333304c.05727488.31099774.10063245.72102227.15790733 1.03202l2.7866679.29065788c.89124126.1252558.86340664.3233094.02944026.50905134l-2.71387008.62841801c.05727487.31099773.00160563.70710496-.0401463 1.00418538l2.63197186.6728478c.87732395.22428259.84948933.4223362-.06958655.49513403l-2.77114496.31742027-.15309041 1.08929488 2.60413724.8709014c.86340664.32330941.83557202.52136302-.06958655.49513404l-2.72939303.02033985c-.05566924.39610723-.19644798.67927034-.25211722 1.07537757l2.44944119 1.25309132c.75046252.4084189.7226279.60647252-.16861336.48121673l-2.67372378-.37576737c-.14077874.2831631-.19644798.67927033-.33722672.96243344l2.30866245 1.53625444c.73654522.5074457.60968379.69158201-.16861336.48121672l-2.63197185-.67284779c-.14077874.28316311-.29547479.66535303-.43625352.94851614l2.0688569 1.80550023c.6236011.5925552.59576648.79060882-.26764016.46729942l-2.49119312-.9560109c-.23980554.2692458-.39450159.65143571-.63430713.92068151l1.84296867 1.97571923c.6236011.5925552.48282236.87571832-.36666697.4533821l-2.49279876-1.66311586-.71941663.8077374 1.61708044 2.14593823c.51065698.6776647.38379555.861801-.35274966.3543553l-2.20963564-1.52233713c-.23980555.2692458-.4796111.5384916-.80452613.69479328l1.3911922 2.31615722c.39771287.7627742.27085144.9469105-.45177647.34043799l-2.0688569-1.80550024c-.33883235.2553285-.56472059.42554749-.88963563.58184917l1.06627717 2.4724589c.38379555.861801.17182463.9329932-.43785916.24141118l-1.84296867-1.97571923-.97474513.46890505.74136213 2.62876058c.28476874.8478837.07279782.91907589-.43785916.24141118l-1.50413632-2.23104772c-.32491504.15630169-.64983009.31260337-1.07377193.45498774l.43036439 2.68603546c.18574194.83396639-.02622898.90515858-.52296866.12846707l-1.27824808-2.40126672c-.31099773.05727488-.73493958.19965925-1.04593731.25693413l.13328397 2.64428353c.07279782.91907588-.2242826.87732395-.52296865.12846706l-.99508498-2.26048797c-.31099773.05727487-.72102227.10063244-1.03202.15790732l-.17771376 2.7015584c-.02622898.90515858-.3233094.86340665-.50905134.02944026l-.74136213-2.62876058c-.31099773.05727487-.70710496.00160563-1.1171295.0449632l-.57382098 2.64588917c-.1252558.89124126-.42233621.84948933-.50905134.02944025l-.21839347-2.75722764c-.39610723-.05566924-.69318765-.09742118-1.10321219-.0540636l-.8709014 2.60413723c-.32330941.86340664-.52136302.83557202-.49513404-.06958655l-.02033985-2.72939303c-.39610723-.05566924-.69318765-.09742117-1.07537757-.25211722l-1.15406452 2.4633585c-.3093921.76437983-.60647251.7226279-.48121672-.16861336l.27674056-2.6876411c-.38218991-.15469604-.67927033-.19644797-.96243345-.3372267l-1.53625443 2.30866244c-.4084189.75046253-.70549932.7087106-.48121672-.16861335l.57382098-2.64588917c-.2831631-.14077874-.66535303-.29547478-.94851614-.43625352l-1.72039073 2.18180102c-.50744571.73654522-.79060882.59576648-.46729942-.26764016l.8709014-2.60413724c-.2831631-.14077873-.5524089-.38058428-.93459882-.53528033L36.15677983 69.541675c-.5925552.6236011-.7766915.49673967-.46729941-.26764016l1.25309132-2.44944119c-.2692458-.23980554-.5384916-.47961109-.82165471-.62038982l-2.15985553 1.71610724c-.6776647.51065698-.861801.38379556-.3543553-.35274966l1.53625443-2.30866245c-.2692458-.23980554-.5384916-.47961109-.69479328-.80452613l-2.2883226 1.1931386c-.7766915.49673966-.9469105.27085143-.3543553-.35274967l1.72039075-2.18180102c-.2692458-.23980555-.42554749-.56472059-.59576648-.79060882l-2.48637621 1.16530397c-.7627742.39771286-.9329932.17182463-.34043799-.45177647l1.98963654-1.94199548c-.15630168-.32491504-.32652068-.55080327-.48282236-.87571831l-2.6426779.84038893c-.84788369.28476874-.91907587.07279782-.24141117-.43785916l2.25888234-1.70218994c-.15630169-.32491504-.31260337-.64983008-.36987825-.9608278l-2.69995277.5293912c-.83396638.18574193-.90515857-.026229-.12846706-.52296866l2.41518402-1.3772749c-.15630168-.32491504-.21357656-.63591277-.27085143-.9469105l-2.95528126.19055885c-.91907589.07279782-.99026807-.1391731-.12846707-.52296866l2.5714857-1.05235985c-.05727487-.31099773-.10063243-.72102227-.15790731-1.03202l-2.81450252-.09260426c-.90515858-.02622899-.87732395-.2242826-.02944026-.50905135l2.6426779-.84038893c-.05727488-.31099773-.00160564-.70710495-.05888052-1.01810269l-2.75883328-.48871148c-.89124126-.1252558-.84948933-.42233622-.02944026-.50905135l2.79897958-.51547389c.04175193-.29708042-.00160564-.70710496.0401463-1.00418538l-2.71708136-.7857919c-.87732395-.2242826-.83557202-.52136303.06958655-.49513404l2.84233714-.10544935.1391731-.99026807-2.57630261-1.06895502c-.76437983-.3093921-.7226279-.60647252.16861336-.48121673l2.80058521.19163107c.04175193-.29708042.19644798-.67927034.33722671-.96243345l-2.43552387-1.35211813c-.75046253-.4084189-.7226279-.60647251.16861335-.48121672l2.75883329.48871149c.14077873-.28316311.29547478-.66535303.43625352-.94851614l-2.29474514-1.63528124c-.73654522-.50744571-.60968379-.69158202.26764016-.46729942l2.70316404.88481872c.14077874-.28316311.38058428-.55240891.52136302-.83557202l-2.0549396-1.90452704c-.6236011-.5925552-.49673966-.77669151.26764017-.46729942l2.5623853 1.16798183c.23980555-.2692458.38058429-.55240891.62038983-.82165471l-1.81513405-2.17377284c-.60968379-.69158202-.38379556-.86180101.35274966-.3543553l2.42160657 1.45114494c.23980554-.2692458.46569377-.4394648.70549932-.7087106l-1.57532851-2.44301864c-.49673967-.77669151-.28476875-.8478837.35274966-.3543553l2.28082783 1.73430805c.23980555-.2692458.56472059-.42554748.80452613-.69479328l-1.22257885-2.79737394c-.39771286-.7627742-.17182463-.9329932.45177647-.340438l2.04102229 2.00355386c.22588823-.170219.55080327-.32652068.87571831-.48282236l-.93941573-2.6565952c-.28476875-.8478837-.07279783-.91907589.43785915-.24141119l1.80121675 2.27279965c.32491504-.15630168.64983008-.31260336.87571831-.48282236l-.6145007-2.81289688c-.18574193-.83396639.02622899-.90515858.53688597-.22749387l1.4763017 2.42910133c.32491504-.15630168.63591277-.21357656.9469105-.27085144l-.30350296-2.87017176c-.07279782-.91907588.1391731-.99026807.52296865-.12846706l1.15138666 2.58540301.9329932-.17182463.09260426-2.81450252c.02622898-.90515857.2242826-.87732395.50905134-.02944026l.82647162 2.7417047c.31099773-.05727487.72102227-.10063244 1.0181027-.0588805l.40360198-2.8717774c.1252558-.89124127.3233094-.86340665.50905135-.02944027l.6145007 2.8128969c.29708042.04175192.70710495-.00160564 1.00418537.04014629l.6867651-2.73099867c.2242826-.87732395.42233622-.84948933.49513404.06958655l.33133759 2.67211815zm-5.01933204 37.86999216c9.40754665 1.32214446 18.10424366-5.2312868 19.42638812-14.63883345s-5.2312868-18.10424366-14.63883345-19.42638812-18.18935315 5.11834268-19.51149761 14.52588933 5.31639629 18.21718778 14.72394294 19.53933224z"/>
  <path fill="#777" d="m52.62575303 29.24151468.99026807.1391731 1.08287233-2.67532942c.3233094-.86340664.5074457-.73654521.49513403.06958655l-.09260426 2.81450253c.29708042.04175193.67927034.19644797.97635076.2381999l1.36603544-2.53455068c.4084189-.75046253.60647251-.7226279.48121672.16861336l-.48871149 2.75883328c.28316311.14077874.66535303.29547478.96243345.33722671l1.63528124-2.29474514c.50744571-.73654521.69158202-.60968378.46729942.26764017l-.78579191 2.71708135c.2831631.14077874.66535303.29547478.93459883.53528033L62.4695532 29.615143c.5925552-.6236011.77669151-.49673967.46729942.26764017l-1.08287234 2.67532942c.2692458.23980554.55240892.38058428.82165472.62038983l2.08866334-1.92807817c.69158201-.6096838.87571832-.48282236.4533821.36666697l-1.35211813 2.43552387c.2692458.23980555.5384916.4796111.7087106.70549933l2.34399184-1.58924582c.6776647-.51065698.861801-.38379556.3543553.35274966l-1.76214268 2.47888144c.2692458.23980555.4394648.46569378.69479329.80452613l2.50029352-1.26433078c.7627742-.39771286.9469105-.27085143.34043798.45177647l-1.90452704 2.0549396c.170219.22588823.42554749.56472058.58184917.88963562l2.67051251-1.03844254c.8478837-.28476875.91907589-.07279782.24141118.43785916l-2.17377284 1.81513405.46890505.97474512 2.7277874-.72744481c.83396638-.18574194.90515856.02622898.24141117.43785916l-2.34399183 1.58924582c.15630168.32491504.21357656.63591277.36987824.9608278l2.78506226-.41644707c.82004908-.08671514.99026807.1391731.12846707.52296865l-2.50029352 1.26433078c.05727488.31099773.21357656.63591277.25693413 1.0459373l2.72939302-.02033985c.90515857.02622899.87732395.2242826.12846706.52296866l-2.5575684.95333304c.05727488.31099774.10063245.72102227.15790733 1.03202l2.7866679.29065788c.89124126.1252558.86340664.3233094.02944026.50905134l-2.71387008.62841801c.05727487.31099773.00160563.70710496-.0401463 1.00418538l2.63197186.6728478c.87732395.22428259.84948933.4223362-.06958655.49513403l-2.77114496.31742027-.15309041 1.08929488 2.60413724.8709014c.86340664.32330941.83557202.52136302-.06958655.49513404l-2.72939303.02033985c-.05566924.39610723-.19644798.67927034-.25211722 1.07537757l2.44944119 1.25309132c.75046252.4084189.7226279.60647252-.16861336.48121673l-2.67372378-.37576737c-.14077874.2831631-.19644798.67927033-.33722672.96243344l2.30866245 1.53625444c.73654522.5074457.60968379.69158201-.16861336.48121672l-2.63197185-.67284779c-.14077874.28316311-.29547479.66535303-.43625352.94851614l2.0688569 1.80550023c.6236011.5925552.59576648.79060882-.26764016.46729942l-2.49119312-.9560109c-.23980554.2692458-.39450159.65143571-.63430713.92068151l1.84296867 1.97571923c.6236011.5925552.48282236.87571832-.36666697.4533821l-2.49279876-1.66311586-.71941663.8077374 1.61708044 2.14593823c.51065698.6776647.38379555.861801-.35274966.3543553l-2.20963564-1.52233713c-.23980555.2692458-.4796111.5384916-.80452613.69479328l1.3911922 2.31615722c.39771287.7627742.27085144.9469105-.45177647.34043799l-2.0688569-1.80550024c-.33883235.2553285-.56472059.42554749-.88963563.58184917l1.06627717 2.4724589c.38379555.861801.17182463.9329932-.43785916.24141118l-1.84296867-1.97571923-.97474513.46890505.74136213 2.62876058c.28476874.8478837.07279782.91907589-.43785916.24141118l-1.50413632-2.23104772c-.32491504.15630169-.64983009.31260337-1.07377193.45498774l.43036439 2.68603546c.18574194.83396639-.02622898.90515858-.52296866.12846707l-1.27824808-2.40126672c-.31099773.05727488-.73493958.19965925-1.04593731.25693413l.13328397 2.64428353c.07279782.91907588-.2242826.87732395-.52296865.12846706l-.99508498-2.26048797c-.31099773.05727487-.72102227.10063244-1.03202.15790732l-.17771376 2.7015584c-.02622898.90515858-.3233094.86340665-.50905134.02944026l-.74136213-2.62876058c-.31099773.05727487-.70710496.00160563-1.1171295.0449632l-.57382098 2.64588917c-.1252558.89124126-.42233621.84948933-.50905134.02944025l-.21839347-2.75722764c-.39610723-.05566924-.69318765-.09742118-1.10321219-.0540636l-.8709014 2.60413723c-.32330941.86340664-.52136302.83557202-.49513404-.06958655l-.02033985-2.72939303c-.39610723-.05566924-.69318765-.09742117-1.07537757-.25211722l-1.15406452 2.4633585c-.3093921.76437983-.60647251.7226279-.48121672-.16861336l.27674056-2.6876411c-.38218991-.15469604-.67927033-.19644797-.96243345-.3372267l-1.53625443 2.30866244c-.4084189.75046253-.70549932.7087106-.48121672-.16861335l.57382098-2.64588917c-.2831631-.14077874-.66535303-.29547478-.94851614-.43625352l-1.72039073 2.18180102c-.50744571.73654522-.79060882.59576648-.46729942-.26764016l.8709014-2.60413724c-.2831631-.14077873-.5524089-.38058428-.93459882-.53528033L36.15677983 69.541675c-.5925552.6236011-.7766915.49673967-.46729941-.26764016l1.25309132-2.44944119c-.2692458-.23980554-.5384916-.47961109-.82165471-.62038982l-2.15985553 1.71610724c-.6776647.51065698-.861801.38379556-.3543553-.35274966l1.53625443-2.30866245c-.2692458-.23980554-.5384916-.47961109-.69479328-.80452613l-2.2883226 1.1931386c-.7766915.49673966-.9469105.27085143-.3543553-.35274967l1.72039075-2.18180102c-.2692458-.23980555-.42554749-.56472059-.59576648-.79060882l-2.48637621 1.16530397c-.7627742.39771286-.9329932.17182463-.34043799-.45177647l1.98963654-1.94199548c-.15630168-.32491504-.32652068-.55080327-.48282236-.87571831l-2.6426779.84038893c-.84788369.28476874-.91907587.07279782-.24141117-.43785916l2.25888234-1.70218994c-.15630169-.32491504-.31260337-.64983008-.36987825-.9608278l-2.69995277.5293912c-.83396638.18574193-.90515857-.026229-.12846706-.52296866l2.41518402-1.3772749c-.15630168-.32491504-.21357656-.63591277-.27085143-.9469105l-2.95528126.19055885c-.91907589.07279782-.99026807-.1391731-.12846707-.52296866l2.5714857-1.05235985c-.05727487-.31099773-.10063243-.72102227-.15790731-1.03202l-2.81450252-.09260426c-.90515858-.02622899-.87732395-.2242826-.02944026-.50905135l2.6426779-.84038893c-.05727488-.31099773-.00160564-.70710495-.05888052-1.01810269l-2.75883328-.48871148c-.89124126-.1252558-.84948933-.42233622-.02944026-.50905135l2.79897958-.51547389c.04175193-.29708042-.00160564-.70710496.0401463-1.00418538l-2.71708136-.7857919c-.87732395-.2242826-.83557202-.52136303.06958655-.49513404l2.84233714-.10544935.1391731-.99026807-2.57630261-1.06895502c-.76437983-.3093921-.7226279-.60647252.16861336-.48121673l2.80058521.19163107c.04175193-.29708042.19644798-.67927034.33722671-.96243345l-2.43552387-1.35211813c-.75046253-.4084189-.7226279-.60647251.16861335-.48121672l2.75883329.48871149c.14077873-.28316311.29547478-.66535303.43625352-.94851614l-2.29474514-1.63528124c-.73654522-.50744571-.60968379-.69158202.26764016-.46729942l2.70316404.88481872c.14077874-.28316311.38058428-.55240891.52136302-.83557202l-2.0549396-1.90452704c-.6236011-.5925552-.49673966-.77669151.26764017-.46729942l2.5623853 1.16798183c.23980555-.2692458.38058429-.55240891.62038983-.82165471l-1.81513405-2.17377284c-.60968379-.69158202-.38379556-.86180101.35274966-.3543553l2.42160657 1.45114494c.23980554-.2692458.46569377-.4394648.70549932-.7087106l-1.57532851-2.44301864c-.49673967-.77669151-.28476875-.8478837.35274966-.3543553l2.28082783 1.73430805c.23980555-.2692458.56472059-.42554748.80452613-.69479328l-1.22257885-2.79737394c-.39771286-.7627742-.17182463-.9329932.45177647-.340438l2.04102229 2.00355386c.22588823-.170219.55080327-.32652068.87571831-.48282236l-.93941573-2.6565952c-.28476875-.8478837-.07279783-.91907589.43785915-.24141119l1.80121675 2.27279965c.32491504-.15630168.64983008-.31260336.87571831-.48282236l-.6145007-2.81289688c-.18574193-.83396639.02622899-.90515858.53688597-.22749387l1.4763017 2.42910133c.32491504-.15630168.63591277-.21357656.9469105-.27085144l-.30350296-2.87017176c-.07279782-.91907588.1391731-.99026807.52296865-.12846706l1.15138666 2.58540301.9329932-.17182463.09260426-2.81450252c.02622898-.90515857.2242826-.87732395.50905134-.02944026l.82647162 2.7417047c.31099773-.05727487.72102227-.10063244 1.0181027-.0588805l.40360198-2.8717774c.1252558-.89124127.3233094-.86340665.50905135-.02944027l.6145007 2.8128969c.29708042.04175192.70710495-.00160564 1.00418537.04014629l.6867651-2.73099867c.2242826-.87732395.42233622-.84948933.49513404.06958655l.33133759 2.67211815zm-5.01933204 37.86999216c9.40754665 1.32214446 18.10424366-5.2312868 19.42638812-14.63883345s-5.2312868-18.10424366-14.63883345-19.42638812-18.18935315 5.11834268-19.51149761 14.52588933 5.31639629 18.21718778 14.72394294 19.53933224z"/>
  <path fill="none" d="M73.4 51.7H54.3c-1.6 0-3.7 1.1-4.5 2.6l-9.8 17c-1.1 1.8-.2 4 1.9 5 3.1 1.7 11.2 1.6 17.4-.2 4.8-1.7 8.9-4.7 12.1-8.5 4.2-5.3 5.5-10.7 5.5-12.3 0-1.8-1.4-3.6-3.5-3.6z"/>
  <circle cx="50" cy="50" r="1.5" fill="none"/>
  <linearGradient id="b" x1="-184.161" x2="-184.161" y1="627.5" y2="626" gradientTransform="matrix(48.1623 0 0 -48.1543 8919.593 30230.77)" gradientUnits="userSpaceOnUse">
    <stop offset="0" stop-color="#D9DADB"/>
    <stop offset="1" stop-color="#7D8082"/>
  </linearGradient>
  <path fill="url(#b)" d="M85.1 51.8c1.3-.2 1.3-.5 0-.8l-3.7-.7v-1.8l3.6-.9c1.3-.3 1.2-.7-.1-.8l-3.7-.3c-.1-.6-.1-1.1-.2-1.7l3.5-1.3c1.2-.5 1.2-.8-.1-.8l-3.7.1c-.1-.6-.3-1.1-.4-1.7l3.3-1.7c1.2-.6 1-.9-.2-.7l-3.7.6c-.2-.5-.4-1.1-.6-1.6l3.1-2.1c1.1-.8.9-1.1-.3-.7l-3.6 1c-.3-.5-.5-1-.8-1.5l2.8-2.5c1-.9.8-1.2-.4-.7l-3.4 1.4c-.3-.5-.7-1-1-1.4l2.5-2.8c.9-1 .7-1.2-.5-.6L74 29.6c-.4-.4-.7-.9-1.1-1.3l2.2-3.1c.8-1.1.5-1.3-.6-.6l-3 2.2c-.4-.4-.8-.8-1.3-1.1l1.8-3.3c.6-1.2.3-1.4-.6-.5l-2.7 2.5c-.5-.3-.9-.7-1.4-1l1.4-3.5c.5-1.2.2-1.4-.7-.4l-2.4 2.8c-.5-.3-1-.5-1.5-.8l.9-3.6c.3-1.3 0-1.4-.7-.3l-2 3.1c-.5-.2-1.1-.4-1.6-.6l.5-3.7c.2-1.3-.1-1.4-.7-.2l-1.7 3.3c-.5-.2-1.1-.3-1.7-.4l.1-3.7c0-1.3-.3-1.4-.8-.1l-1.3 3.5c-.6-.1-1.1-.2-1.7-.2l-.6-3.6c-.1-1.3-.5-1.3-.8-.1l-.9 3.6h-1.7l-.8-3.7c-.3-1.3-.6-1.3-.8 0l-.4 3.7c-.6 0-1.1.1-1.7.2l-1.3-3.5c-.4-1.2-.8-1.2-.8.1l.1 3.7c-.6.1-1.1.2-1.7.4L40.4 16c-.6-1.2-.9-1.1-.8.2l.4 3.7c-.5.2-1.1.4-1.6.6l-2-3.1c-.7-1.1-1-1-.7.3l.9 3.6c-.5.2-1 .5-1.5.8l-2.4-2.9c-.8-1-1.1-.8-.7.4l1.3 3.5c-.5.3-1 .6-1.4.9l-2.7-2.6c-1-.9-1.2-.7-.6.5l1.7 3.3c-.4.4-.9.7-1.3 1.1l-3-2.2c-1.1-.8-1.3-.5-.6.5l2.1 3.1c-.4.4-.8.8-1.2 1.3l-3.2-1.9c-1.1-.7-1.4-.4-.5.6l2.4 2.8c-.3.4-.7.9-1 1.4l-3.4-1.5c-1.2-.5-1.4-.2-.4.7l2.8 2.5c-.3.5-.6 1-.8 1.5l-3.6-1c-1.3-.4-1.4 0-.3.7l3 2.1c-.2.5-.5 1-.7 1.6l-3.7-.6c-1.3-.2-1.4.1-.3.7l3.3 1.8c-.2.5-.3 1.1-.5 1.6l-3.7-.1c-1.3 0-1.4.3-.2.8L19 44c-.1.6-.2 1.1-.3 1.7l-3.7.5c-1.3.1-1.3.4-.1.8l3.6 1c0 .6-.1 1.1-.1 1.7l-3.7.7c-1.3.2-1.3.6 0 .8l3.7.5c0 .6.1 1.1.1 1.7l-3.6 1.1c-1.3.4-1.2.7.1.8l3.7.1c.1.6.2 1.1.3 1.7l-3.4 1.6c-1.2.6-1.1.9.2.8l3.7-.4c.2.6.3 1.1.5 1.7l-3.2 1.9c-1.1.7-1 1 .3.7l3.7-.8c.2.5.5 1 .7 1.6l-2.9 2.3c-1 .8-.9 1.1.4.7l3.5-1.2.9 1.5-2.4 2.4c-.9.9-.7 1.2.4.6l3.4-1.6c.3.5.7.9 1.1 1.3l-2.3 2.9c-.8 1-.6 1.3.5.6l3.1-2 1.2 1.2-1.9 3.2c-.7 1.1-.4 1.3.6.5l2.9-2.4c.4.4.9.7 1.4 1.1l-1.6 3.4c-.6 1.2-.3 1.4.6.4l2.6-2.7 1.5.9-1.2 3.5c-.4 1.2-.1 1.4.7.4l2.3-3c.5.2 1 .5 1.6.7l-.7 3.7c-.3 1.3.1 1.4.7.3l1.9-3.2c.5.2 1.1.4 1.6.5L41 84c-.1 1.3.2 1.4.8.2l1.5-3.4c.6.1 1.1.2 1.7.3l.2 3.7c.1 1.3.4 1.3.8.1l1-3.6c.6.1 1.2.1 1.7.1l.6 3.7c.2 1.3.5 1.3.8 0l.7-3.7c.6 0 1.1 0 1.7-.1l1 3.6c.4 1.3.7 1.2.8-.1l.2-3.7c.6-.1 1.1-.2 1.7-.3l1.4 3.4c.5 1.2.8 1.1.8-.2l-.4-3.5c.6-.1 1.1-.3 1.6-.5l1.9 3.2c.7 1.1 1 1 .7-.3l-.7-3.7c.5-.2 1.1-.4 1.6-.7l2.2 3c.8 1.1 1.1.9.7-.4l-1-3.4 1.5-.9 2.5 2.7c.9 1 1.2.8.7-.4l-1.5-3.4c.5-.3.9-.7 1.4-1l2.9 2.4c1 .8 1.3.6.6-.5l-1.9-3.2 1.2-1.2 3.1 2c1.1.7 1.3.5.5-.6l-2.3-2.9c.4-.4.7-.9 1.1-1.3l3.4 1.7c1.2.6 1.4.3.5-.6L76 67.8c.3-.5.6-.9.9-1.4l3.5 1.2c1.2.4 1.4.1.4-.7l-2.9-2.3c.3-.5.5-1 .8-1.6l3.6.8c1.3.3 1.4 0 .3-.7l-3.2-2c.2-.5.4-1.1.6-1.6l3.7.4c1.3.1 1.4-.2.2-.8l-3.4-1.6c.1-.6.3-1.1.4-1.7l3.7-.1c1.3 0 1.4-.4.1-.8l-3.5-.9c.1-.6.1-1.1.2-1.7l3.7-.5zM36.9 69.4c-1 1.8-3.6 2-5.2 1.1-1.1-.6-3.7-3.1-6.1-7-2.2-4-3.4-8.5-3.4-13.4 0-8.2 3.5-15.5 9.2-20.6 1.8-1 4.3-.8 5.3.9l9.9 17c.8 1.4.8 4.1-.1 5.5l-9.6 16.5zm34.5-1.8c-3.2 3.8-7.3 6.8-12.1 8.5-6.2 1.8-14.3 1.9-17.4.2-2.1-1-2.9-3.2-1.9-5l9.8-17c.8-1.4 2.9-2.6 4.5-2.6h19.1c2.1 0 3.5 1.8 3.5 3.6 0 1.6-1.3 7.1-5.5 12.3zM48.5 50c0-.8.7-1.5 1.5-1.5s1.5.7 1.5 1.5-.7 1.5-1.5 1.5-1.5-.7-1.5-1.5zm25.3-1.8h-20c-1.7-.1-3.7-1.5-4.5-3l-9.5-16.5c-1-1.8.1-3.8 1.7-4.7 1.1-.6 4.6-1.7 9.2-1.7 13.1.3 23.9 9.8 26.4 22.2.3 2.1-1.5 3.7-3.3 3.7z"/>
</svg>
